<?xml version="1.0" encoding="utf-8"?>
<!-- Generator: Adobe Illustrator 27.2.0, SVG Export Plug-In . SVG Version: 6.00 Build 0)  -->
<svg version="1.1" id="a" xmlns="http://www.w3.org/2000/svg" xmlns:xlink="http://www.w3.org/1999/xlink" x="0px" y="0px"
	 viewBox="0 0 153 20" style="enable-background:new 0 0 153 20;" xml:space="preserve">
<style type="text/css">
	.st0{fill:#707070;}
</style>
<path class="st0" d="M6.9,5.6V3.4h12.6l1,1v5.1l-0.7,0.7l0.7,0.7V17H7.9l-1-1v-2.3h1v-1.9l-1-1V8.5h1V6.6L6.9,5.6L6.9,5.6z
	 M17.3,6.6h-6.1v1.9h6.1V6.6z M11.1,13.7h6.1v-1.9h-6.1V13.7z"/>
<path class="st0" d="M35.5,11.8l1,1V17H23.8l-1-1v-2.3h1V6.6l-1-1V3.3h4.2l1,1v2.3h-1v7.1h6.1v-1.9L35.5,11.8L35.5,11.8z"/>
<path class="st0" d="M37.7,3.3h12.7l1,1V17H49l-1-1v-4.2h-6.2V17h-2.3l-1-1v-4.2l-1-1V8.5h1V6.6l-1-1C37.7,5.6,37.7,3.3,37.7,3.3z
	 M41.9,8.5h6.2V6.6h-6.2V8.5z"/>
<path class="st0" d="M66.2,3.3l1,1v4.2h-2.3l-1-1V6.6h-6.2v7.1H64v-1.9h2.3l1,1V17H54.6l-1-1v-2.3h1V6.6l-1-1V3.3L66.2,3.3L66.2,3.3
	z"/>
<path class="st0" d="M82.2,3.3l1,1v2.9l-1.4,1.4h0.4l1,1V17h-2.3l-1-1v-4.2h-6.2v1.9l1,1V17h-4.2l-1-1v-2.3h1v-1.9l-1-1V8.5h1V6.6
	l-1-1V3.3h4.2l1,1v2.3h-1v1.9h3.4l2.7-2.7V3.3L82.2,3.3L82.2,3.3z"/>
<path class="st0" d="M98.2,3.3l1,1v2.3h-9.4v1.9h8.4l1,1v2.3h-9.4v1.9l1,1V17h-4.2l-1-1v-2.3h1v-1.9l-1-1V8.6h1V6.6l-1-1V3.4
	L98.2,3.3L98.2,3.3z"/>
<path class="st0" d="M113.6,3.3l1,1V17h-12.7l-1-1v-2.3h1V6.6l-1-1V3.3h4.2l1,1v2.3h-1v7.1h6.2V3.3H113.6z"/>
<path class="st0" d="M117.1,5.6V3.4h12.7l1,1v2.9l-1.4,1.4h0.4l1,1V17h-2.3l-1-1v-4.2h-6.2v1.9l1,1V17H118l-1-1v-2.3h1v-1.9l-1-1
	V8.5h1V6.6L117.1,5.6L117.1,5.6z M124.7,8.6l1.9-1.9h-5.4v1.9H124.7z"/>
<path class="st0" d="M145.8,3.3l1,1V17h-12.6l-1-1v-2.3h10l-1.9-1.9h-7.1l-1-1V8.5h1V6.6l-1-1V3.3h4.2l1,1v2.3h-1v1.9h5.2l1,1V3.3
	H145.8L145.8,3.3z"/>
</svg>
