<?xml version="1.0" encoding="UTF-8"?><svg id="a" xmlns="http://www.w3.org/2000/svg" viewBox="0 0 153 20"><path d="m6.98,5.75v-2.28h12.65l.97.97v5.12l-.72.72.72.72v6.09H7.95l-.97-.97v-2.28h.97v-1.95l-.97-.97v-2.26h.97v-1.95l-.97-.97Zm10.37.97h-6.15v1.95h6.15v-1.95Zm-6.15,7.12h6.15v-1.95h-6.15v1.95Z" style="fill:#fff;"/><path d="m35.54,11.89l.97.99v4.2h-12.65l-.97-.97v-2.28h.97v-7.12l-.97-.97v-2.28h4.22l.97.97v2.28h-.97v7.12h6.15v-1.95h2.28Z" style="fill:#fff;"/><path d="m37.74,3.47h12.65l.97.97v12.65h-2.28l-.97-.97v-4.22h-6.15v5.19h-2.28l-.97-.97v-4.22l-.97-.97v-2.26h.97v-1.95l-.97-.97v-2.28Zm4.22,5.19h6.15v-1.95h-6.15v1.95Z" style="fill:#fff;"/><path d="m66.3,3.47l.97.97v4.22h-2.28l-.97-.99v-.95h-6.15v7.12h6.15v-1.95h2.28l.97.99v4.2h-12.65l-.97-.97v-2.28h.97v-7.12l-.97-.97v-2.28h12.65Z" style="fill:#fff;"/><path d="m82.22,3.47l.97.97v2.86l-1.36,1.36h.39l.97.97v7.45h-2.28l-.97-.97v-4.22h-6.15v1.95l.97.97v2.28h-4.22l-.97-.97v-2.28h.97v-1.95l-.97-.97v-2.26h.97v-1.95l-.97-.97v-2.28h4.22l.97.97v2.28h-.97v1.95h3.44l2.71-2.7v-2.49h2.28Z" style="fill:#fff;"/><path d="m98.29,3.47l.97.97v2.28h-9.4v1.95h8.42l.97.97v2.26h-9.4v1.95l.97.97v2.28h-4.22l-.97-.97v-2.28h.97v-1.95l-.97-.97v-2.26h.97v-1.95l-.97-.97v-2.28h12.65Z" style="fill:#fff;"/><path d="m113.64,3.47l.97.97v12.65h-12.65l-.97-.97v-2.28h.97v-7.12l-.97-.97v-2.28h4.22l.97.97v2.28h-.97v7.12h6.15V3.47h2.28Z" style="fill:#fff;"/><path d="m117.13,5.75v-2.28h12.65l.97.97v2.86l-1.36,1.36h.39l.97.97v7.45h-2.28l-.97-.97v-4.22h-6.15v1.95l.97.97v2.28h-4.22l-.97-.97v-2.28h.97v-1.95l-.97-.97v-2.26h.97v-1.95l-.97-.97Zm7.67,2.92l1.95-1.95h-5.39v1.95h3.44Z" style="fill:#fff;"/><path d="m145.82,3.47l.97.97v12.65h-12.65l-.97-.97v-2.28h9.98l-1.93-1.95h-7.08l-.97-.97v-2.26h.97v-1.95l-.97-.97v-2.28h4.22l.97.97v2.28h-.97v1.95h5.17l.97.97V3.47h2.28Z" style="fill:#fff;"/></svg>